<svg width="56" height="11" viewBox="0 0 56 11" fill="none" xmlns="http://www.w3.org/2000/svg">
<path d="M16.4706 7.53447L19.0153 9.16178L18.34 6.09476L20.5882 4.03118L17.6276 3.76505L16.4706 0.872543L15.3135 3.76505L12.3529 4.03118L14.6012 6.09476L13.9259 9.16178L16.4706 7.53447Z" fill="#FFFD54"/>
<g clip-path="url(#clip0_2_69)">
<path d="M28 7.53447L30.5447 9.16178L29.8694 6.09476L32.1176 4.03118L29.1571 3.76505L28 0.872543L26.8429 3.76505L23.8824 4.03118L26.1306 6.09476L25.4553 9.16178L28 7.53447Z" fill="#FFFD54"/>
</g>
<path d="M39.5294 7.53447L42.0741 9.16178L41.3988 6.09476L43.647 4.03118L40.6864 3.76505L39.5294 0.872543L38.3723 3.76505L35.4117 4.03118L37.66 6.09476L36.9847 9.16178L39.5294 7.53447Z" fill="#FFFD54"/>
<g clip-path="url(#clip1_2_69)">
<path d="M4.94116 7.53447L7.48587 9.16178L6.81058 6.09476L9.05881 4.03118L6.09822 3.76505L4.94116 0.872543L3.7841 3.76505L0.823517 4.03118L3.07175 6.09476L2.39646 9.16178L4.94116 7.53447Z" fill="#FFFD54"/>
</g>
<g clip-path="url(#clip2_2_69)">
<path d="M51.0588 7.53447L53.6035 9.16178L52.9282 6.09476L55.1765 4.03118L52.2159 3.76505L51.0588 0.872543L49.9018 3.76505L46.9412 4.03118L49.1894 6.09476L48.5141 9.16178L51.0588 7.53447Z" fill="#FFFD54"/>
</g>
<defs>
<clipPath id="clip0_2_69">
<rect width="9.88235" height="10.4706" fill="white" transform="translate(23.0588)"/>
</clipPath>
<clipPath id="clip1_2_69">
<rect width="9.88235" height="10.4706" fill="white"/>
</clipPath>
<clipPath id="clip2_2_69">
<rect width="9.88235" height="10.4706" fill="white" transform="translate(46.1176)"/>
</clipPath>
</defs>
</svg>
